<?xml version="1.0" encoding="utf-8"?>
<!-- Generator: Adobe Illustrator 16.0.0, SVG Export Plug-In . SVG Version: 6.00 Build 0)  -->
<!DOCTYPE svg PUBLIC "-//W3C//DTD SVG 1.1//EN" "http://www.w3.org/Graphics/SVG/1.1/DTD/svg11.dtd">
<svg version="1.1" id="Layer_1" xmlns="http://www.w3.org/2000/svg" xmlns:xlink="http://www.w3.org/1999/xlink" x="0px" y="0px"
	 width="125px" height="125px" viewBox="0 0 125 125" enable-background="new 0 0 125 125" xml:space="preserve">
<g>
	<path fill="#FFFFFF" d="M62.5,47.532c-8.454,0-15.307,6.857-15.307,15.308c0,8.463,6.854,15.319,15.307,15.319
		c8.45,0,15.306-6.855,15.306-15.319C77.806,54.389,70.95,47.532,62.5,47.532z"/>
	<path fill="#FFFFFF" d="M62.503,2.003C29.089,2.003,2,29.089,2,62.495c0,33.414,27.089,60.501,60.503,60.501
		c33.406,0,60.497-27.088,60.497-60.501C123,29.089,95.909,2.003,62.503,2.003z M97.419,78.525c0,4.248-3.473,7.732-7.722,7.732
		H35.303c-4.252,0-7.723-3.484-7.723-7.732V46.752c0-4.251,3.471-7.725,7.723-7.725h11.274l3.581-5.542
		c1.146-1.77,3.799-3.212,5.901-3.212h12.88c2.104,0,4.751,1.442,5.902,3.212l3.578,5.542h11.276c4.249,0,7.722,3.473,7.722,7.725
		V78.525z"/>
</g>
</svg>
